<?xml version="1.0" standalone="no"?>
<!DOCTYPE svg PUBLIC "-//W3C//DTD SVG 20010904//EN"
 "http://www.w3.org/TR/2001/REC-SVG-20010904/DTD/svg10.dtd">
<svg version="1.0" xmlns="http://www.w3.org/2000/svg"
 width="256.000000pt" height="256.000000pt" viewBox="0 0 256.000000 256.000000"
 preserveAspectRatio="xMidYMid meet">

<g transform="translate(0.000000,256.000000) scale(0.100000,-0.100000)"
fill="#000000" stroke="none">
<path d="M110 1582 c0 -831 1 -872 20 -946 63 -248 259 -443 508 -507 71 -18
118 -19 944 -19 l868 0 0 868 c0 831 -1 872 -20 946 -64 250 -261 446 -515
511 -51 13 -184 15 -932 15 l-873 0 0 -868z m1100 -22 l0 -100 -285 0 -285 0
0 -49 0 -49 38 -5 c20 -3 141 -3 267 0 l231 5 -2 -98 c-1 -55 -2 -101 -3 -104
0 -3 -120 -4 -266 -2 l-265 4 0 -131 0 -131 -120 0 -120 0 0 380 1 380 404 0
405 0 0 -100z m330 -40 l0 -140 190 0 190 0 0 140 0 140 120 0 120 0 0 -380 0
-380 -120 0 -120 0 0 140 0 140 -190 0 -190 0 0 -140 0 -140 -122 0 -123 0 0
380 0 380 123 0 122 0 0 -140z"/>
</g>
</svg>
